<?xml version="1.0" encoding="UTF-8"?>
<!DOCTYPE svg PUBLIC "-//W3C//DTD SVG 1.1//EN" "http://www.w3.org/Graphics/SVG/1.1/DTD/svg11.dtd">
<svg xmlns="http://www.w3.org/2000/svg" version="1.1" width="920px" height="200px" style="shape-rendering:geometricPrecision; text-rendering:geometricPrecision; image-rendering:optimizeQuality; fill-rule:evenodd; clip-rule:evenodd" xmlns:xlink="http://www.w3.org/1999/xlink">
<g><path style="opacity:1" fill="#fcfbfb" d="M 182.5,12.5 C 182.5,71.8333 182.5,131.167 182.5,190.5C 123.167,190.5 63.8333,190.5 4.5,190.5C 4.5,131.167 4.5,71.8333 4.5,12.5C 63.8333,12.5 123.167,12.5 182.5,12.5 Z"/></g>
<g><path style="opacity:1" fill="#e30813" d="M 182.5,12.5 C 241.5,12.5 300.5,12.5 359.5,12.5C 359.5,71.8333 359.5,131.167 359.5,190.5C 300.5,190.5 241.5,190.5 182.5,190.5C 182.5,131.167 182.5,71.8333 182.5,12.5 Z"/></g>
<g><path style="opacity:1" fill="#575656" d="M 370.5,12.5 C 548.167,12.5 725.833,12.5 903.5,12.5C 903.5,71.8333 903.5,131.167 903.5,190.5C 725.833,190.5 548.167,190.5 370.5,190.5C 370.5,131.167 370.5,71.8333 370.5,12.5 Z"/></g>
<g><path style="opacity:1" fill="#1b1a19" d="M 101.5,27.5 C 108.444,27.2723 110.11,30.1056 106.5,36C 104.527,36.4955 102.527,36.6621 100.5,36.5C 100.963,33.5176 101.296,30.5176 101.5,27.5 Z"/></g>
<g><path style="opacity:1" fill="#1c1d1c" d="M 94.5,34.5 C 92.7523,28.0522 91.419,28.0522 90.5,34.5C 89.7784,34.9175 89.2784,35.5842 89,36.5C 90.0587,25.5325 92.5587,25.0325 96.5,35C 95.5632,35.6917 94.8966,35.525 94.5,34.5 Z"/></g>
<g><path style="opacity:1" fill="#ececeb" d="M 102.5,28.5 C 106.473,29.0755 107.473,31.2421 105.5,35C 104.552,35.4828 103.552,35.6495 102.5,35.5C 102.5,33.1667 102.5,30.8333 102.5,28.5 Z"/></g>
<g><path style="opacity:1" fill="#4b4b4a" d="M 75.5,29.5 C 76.7251,30.1522 77.3917,31.3189 77.5,33C 78.0093,34.7767 78.0093,36.2767 77.5,37.5C 75.9462,35.0671 75.2796,32.4005 75.5,29.5 Z"/></g>
<g><path style="opacity:1" fill="#333232" d="M 81.5,27.5 C 83.4835,27.3832 85.1502,28.0499 86.5,29.5C 84.7219,29.5693 82.8886,29.9026 81,30.5C 79.9202,33.2371 80.7536,34.9037 83.5,35.5C 84.6473,35.1822 85.4806,34.5156 86,33.5C 86.5438,35.8453 85.5438,37.1786 83,37.5C 80.4723,36.8031 79.3056,35.1364 79.5,32.5C 79.4365,30.4861 80.1032,28.8194 81.5,27.5 Z"/></g>
<g><path style="opacity:1" fill="#1d1d1d" d="M 119.5,30.5 C 120.239,30.369 120.906,30.5357 121.5,31C 119.248,33.8587 119.248,36.5253 121.5,39C 120.056,39.7805 118.723,39.6139 117.5,38.5C 118.482,35.9044 119.149,33.2377 119.5,30.5 Z"/></g>
<g><path style="opacity:1" fill="#888887" d="M 94.5,34.5 C 93.1667,34.5 91.8333,34.5 90.5,34.5C 91.419,28.0522 92.7523,28.0522 94.5,34.5 Z"/></g>
<g><path style="opacity:1" fill="#232322" d="M 65.5,40.5 C 64.4732,41.8478 63.1398,42.3478 61.5,42C 60.1828,39.5619 59.3495,37.0619 59,34.5C 60.5994,32.9644 62.4328,32.4644 64.5,33C 65.3114,35.1052 66.3114,37.1052 67.5,39C 67.1639,40.0299 66.4972,40.5299 65.5,40.5 Z"/></g>
<g><path style="opacity:1" fill="#d3d2d2" d="M 62.5,37.5 C 60.9519,37.1788 60.2852,36.1788 60.5,34.5C 64.3734,34.334 65.0401,35.334 62.5,37.5 Z"/></g>
<g><path style="opacity:1" fill="#232323" d="M 67.5,32.5 C 67.56,31.9569 67.8933,31.6236 68.5,31.5C 68.7775,35.8927 71.1108,38.0593 75.5,38C 73.6547,39.128 71.6547,39.628 69.5,39.5C 69.2785,36.9327 68.6118,34.5994 67.5,32.5 Z"/></g>
<g><path style="opacity:1" fill="#313131" d="M 110.5,28.5 C 112.927,28.523 115.26,29.023 117.5,30C 111.659,30.5633 111.326,31.73 116.5,33.5C 115.224,34.6446 113.891,34.6446 112.5,33.5C 111.614,34.325 111.281,35.325 111.5,36.5C 113.103,36.3118 114.437,36.8118 115.5,38C 113.575,37.8651 111.575,37.6984 109.5,37.5C 110.159,34.5448 110.492,31.5448 110.5,28.5 Z"/></g>
<g><path style="opacity:1" fill="#262625" d="M 130.5,34.5 C 133.201,34.6591 135.201,35.8258 136.5,38C 136.355,38.772 136.022,39.4387 135.5,40C 132.666,40.0454 130.166,40.8787 128,42.5C 128.491,39.8195 129.324,37.1528 130.5,34.5 Z"/></g>
<g><path style="opacity:1" fill="#e1e1e1" d="M 131.5,36.5 C 132.5,36.5 133.5,36.5 134.5,36.5C 134.5,37.5 134.5,38.5 134.5,39.5C 131.506,39.8543 130.506,38.8543 131.5,36.5 Z"/></g>
<g><path style="opacity:1" fill="#dfdfde" d="M 62.5,37.5 C 63.5,37.5 64.5,37.5 65.5,37.5C 65.5,38.5 65.5,39.5 65.5,40.5C 62.4331,40.8795 61.4331,39.8795 62.5,37.5 Z"/></g>
<g><path style="opacity:1" fill="#343332" d="M 138.5,38.5 C 141.402,38.8225 143.235,40.1559 144,42.5C 142.915,41.7069 141.748,41.0402 140.5,40.5C 139.289,41.2739 139.289,42.1072 140.5,43C 139.5,43.3333 138.5,43.6667 137.5,44C 137.07,44.9195 136.736,45.7528 136.5,46.5C 136.167,46 135.833,45.5 135.5,45C 136.391,42.7211 137.391,40.5544 138.5,38.5 Z"/></g>
<g><path style="opacity:1" fill="#2d2c2b" d="M 56.5,44.5 C 56.4268,41.3177 55.9268,38.3177 55,35.5C 56.6965,37.5596 57.8631,39.8929 58.5,42.5C 58.2528,43.7133 57.5862,44.38 56.5,44.5 Z"/></g>
<g><path style="opacity:1" fill="#2b2b2a" d="M 45.5,40.5 C 49.9047,41.6255 50.4047,43.6255 47,46.5C 46.9152,48.0846 46.7486,49.4179 46.5,50.5C 45.0348,48.4006 43.7015,46.2339 42.5,44C 43.0707,42.4009 44.0707,41.2342 45.5,40.5 Z"/></g>
<g><path style="opacity:1" fill="#1d1c1c" d="M 56.5,44.5 C 55.2918,45.782 53.9584,45.782 52.5,44.5C 51.627,42.5866 50.627,40.7533 49.5,39C 50.3317,38.3123 50.9984,38.479 51.5,39.5C 52.0868,42.4057 53.7535,44.0724 56.5,44.5 Z"/></g>
<g><path style="opacity:1" fill="#e3e4e3" d="M 44.5,42.5 C 46.3547,42.272 47.1881,42.9387 47,44.5C 44.3655,45.6922 43.5322,45.0256 44.5,42.5 Z"/></g>
<g><path style="opacity:1" fill="#999897" d="M 38.5,50.5 C 37.0937,50.0269 36.427,49.0269 36.5,47.5C 37.2544,45.5541 38.5878,44.7207 40.5,45C 39.3318,46.4056 39.6652,47.5723 41.5,48.5C 40.9953,49.9185 39.9953,50.5852 38.5,50.5 Z"/></g>
<g><path style="opacity:1" fill="#292928" d="M 148.5,44.5 C 151.084,45.0483 152.084,46.715 151.5,49.5C 150.5,49.5 149.5,49.5 148.5,49.5C 148.66,51.1992 148.494,52.8659 148,54.5C 146.983,52.6241 146.149,50.6241 145.5,48.5C 144.522,48.9767 143.689,49.6433 143,50.5C 143.327,47.4579 144.66,44.7912 147,42.5C 147.717,43.0442 148.217,43.7109 148.5,44.5 Z"/></g>
<g><path style="opacity:1" fill="#d4d4d4" d="M 148.5,44.5 C 149.141,45.4822 149.807,46.4822 150.5,47.5C 148.505,48.8899 147.172,48.3899 146.5,46C 146.836,44.9701 147.503,44.4701 148.5,44.5 Z"/></g>
<g><path style="opacity:1" fill="#252524" d="M 36.5,47.5 C 36.427,49.0269 37.0937,50.0269 38.5,50.5C 39.6545,53.8141 41.4878,53.8141 44,50.5C 44.6172,51.4491 44.4506,52.2825 43.5,53C 41.9556,54.1871 40.2889,54.5205 38.5,54C 37.3601,52.0266 36.0267,50.1933 34.5,48.5C 34.9569,47.7025 35.6236,47.3691 36.5,47.5 Z"/></g>
<g><path style="opacity:1" fill="#1d1d1c" d="M 154.5,48.5 C 155.043,48.56 155.376,48.8933 155.5,49.5C 154.52,50.9814 153.353,52.3147 152,53.5C 151.217,55.3185 151.717,56.6518 153.5,57.5C 155.483,56.018 157.316,54.3513 159,52.5C 158.496,55.5127 156.663,57.5127 153.5,58.5C 151.261,58.4257 150.261,57.259 150.5,55C 151.205,52.4582 152.539,50.2916 154.5,48.5 Z"/></g>
<g><path style="opacity:1" fill="#31302f" d="M 33.5,54.5 C 32.3772,51.9586 31.0439,51.9586 29.5,54.5C 29.8555,55.5223 30.5222,56.189 31.5,56.5C 31.5,57.1667 31.5,57.8333 31.5,58.5C 26.0264,55.3835 26.3597,52.7168 32.5,50.5C 34.5339,51.5739 34.8672,52.9073 33.5,54.5 Z"/></g>
<g><path style="opacity:1" fill="#dddddc" d="M 33.5,54.5 C 32.5,54.8333 31.8333,55.5 31.5,56.5C 30.5222,56.189 29.8555,55.5223 29.5,54.5C 31.0439,51.9586 32.3772,51.9586 33.5,54.5 Z"/></g>
<g><path style="opacity:1" fill="#101011" d="M 33.5,54.5 C 34.7175,55.1614 36.0508,55.8281 37.5,56.5C 37.3333,56.8333 37.1667,57.1667 37,57.5C 35.3005,56.5939 33.4672,56.2606 31.5,56.5C 31.8333,55.5 32.5,54.8333 33.5,54.5 Z"/></g>
<g><path style="opacity:1" fill="#1a3a21" d="M 104.5,56.5 C 102.621,56.3932 102.288,56.8932 103.5,58C 102.692,58.3076 102.025,58.8076 101.5,59.5C 103.078,60.2978 104.744,60.7978 106.5,61C 104.5,61.3333 102.5,61.6667 100.5,62C 104.043,62.4493 107.043,63.9493 109.5,66.5C 108.214,66.4764 106.88,66.8097 105.5,67.5C 103.718,64.8072 101.385,62.8072 98.5,61.5C 99.1175,59.7708 100.117,58.2708 101.5,57C 99.6739,56.7083 97.8405,56.875 96,57.5C 92.7302,55.237 88.5635,54.9037 83.5,56.5C 83.6107,55.8826 83.944,55.3826 84.5,55C 90.8333,54.3333 97.1667,54.3333 103.5,55C 104.056,55.3826 104.389,55.8826 104.5,56.5 Z"/></g>
<g><path style="opacity:1" fill="#3b6b2f" d="M 98.5,61.5 C 93.2751,61.186 88.2751,61.8527 83.5,63.5C 82.7613,60.9333 82.7613,58.6 83.5,56.5C 88.5635,54.9037 92.7302,55.237 96,57.5C 97.8405,56.875 99.6739,56.7083 101.5,57C 100.117,58.2708 99.1175,59.7708 98.5,61.5 Z"/></g>
<g><path style="opacity:1" fill="#373636" d="M 31.5,58.5 C 33.0847,59.0024 33.5847,60.0024 33,61.5C 31.9614,60.7562 31.4614,59.7562 31.5,58.5 Z"/></g>
<g><path style="opacity:1" fill="#c8b734" d="M 49.5,64.5 C 48.8333,64.5 48.1667,64.5 47.5,64.5C 46.4138,64.38 45.7472,63.7133 45.5,62.5C 47.4725,60.3406 48.8059,61.0073 49.5,64.5 Z"/></g>
<g><path style="opacity:1" fill="#f4f4f4" d="M 98.5,61.5 C 101.385,62.8072 103.718,64.8072 105.5,67.5C 105.5,68.8333 105.5,70.1667 105.5,71.5C 101.599,72.756 97.9321,74.4227 94.5,76.5C 92.3635,75.2126 90.0301,74.3793 87.5,74C 84.9441,72.9455 83.2775,71.1122 82.5,68.5C 82.5,68.1667 82.5,67.8333 82.5,67.5C 83.4345,66.4324 83.7678,65.099 83.5,63.5C 88.2751,61.8527 93.2751,61.186 98.5,61.5 Z"/></g>
<g><path style="opacity:1" fill="#b5a521" d="M 138.5,67.5 C 137.5,67.1667 136.833,66.5 136.5,65.5C 136.989,62.676 138.656,61.3426 141.5,61.5C 140.794,63.6716 139.794,65.6716 138.5,67.5 Z"/></g>
<g><path style="opacity:1" fill="#927e49" d="M 47.5,64.5 C 48.1667,64.5 48.8333,64.5 49.5,64.5C 50.7095,64.9321 51.7095,65.5987 52.5,66.5C 51.0413,66.4326 49.7079,66.7659 48.5,67.5C 48.4431,66.391 48.1098,65.391 47.5,64.5 Z"/></g>
<g><path style="opacity:1" fill="#1a3d1f" d="M 83.5,56.5 C 82.7613,58.6 82.7613,60.9333 83.5,63.5C 83.7678,65.099 83.4345,66.4324 82.5,67.5C 82.44,66.9569 82.1067,66.6236 81.5,66.5C 80.1861,67.3128 79.0195,68.3128 78,69.5C 77.3333,68.8333 77.3333,68.1667 78,67.5C 79.4095,66.2125 80.9095,65.0458 82.5,64C 81.6919,63.6924 81.0253,63.1924 80.5,62.5C 81.7978,59.7978 81.1312,59.1311 78.5,60.5C 79.5387,58.4689 81.2054,57.1355 83.5,56.5 Z"/></g>
<g><path style="opacity:1" fill="#a99a39" d="M 35.5,68.5 C 35.5,68.8333 35.5,69.1667 35.5,69.5C 34.1882,68.8549 33.1882,67.8549 32.5,66.5C 34.3957,65.3606 35.3957,66.0272 35.5,68.5 Z"/></g>
<g><path style="opacity:1" fill="#c9b623" d="M 152.5,66.5 C 154.337,66.6395 154.67,67.3061 153.5,68.5C 152.702,68.0431 152.369,67.3764 152.5,66.5 Z"/></g>
<g><path style="opacity:1" fill="#d90e12" d="M 52.5,67.5 C 54.8584,69.6782 57.5251,71.3449 60.5,72.5C 61.5846,74.5869 63.2512,75.9202 65.5,76.5C 66.1667,77.5 66.8333,78.5 67.5,79.5C 65.4707,81.8585 63.4707,84.1918 61.5,86.5C 59.1416,84.3218 56.4749,82.6551 53.5,81.5C 53.5,80.8333 53.1667,80.5 52.5,80.5C 52.5,79.8333 52.5,79.1667 52.5,78.5C 52.0604,74.6287 52.0604,70.962 52.5,67.5 Z"/></g>
<g><path style="opacity:1" fill="#d11213" d="M 136.5,65.5 C 136.833,66.5 137.5,67.1667 138.5,67.5C 139.174,70.5259 140.007,73.5259 141,76.5C 143.382,74.6113 145.882,72.9447 148.5,71.5C 150.468,79.4329 151.135,87.7663 150.5,96.5C 150.5,101.833 150.5,107.167 150.5,112.5C 149.5,112.5 148.5,112.5 147.5,112.5C 146.523,109.713 146.19,106.713 146.5,103.5C 147.742,101.389 147.742,99.3888 146.5,97.5C 146.5,96.8333 146.5,96.1667 146.5,95.5C 144.98,90.307 144.147,84.9737 144,79.5C 143.722,80.4158 143.222,81.0825 142.5,81.5C 142.423,80.2502 141.756,79.4169 140.5,79C 138.527,78.5045 136.527,78.3379 134.5,78.5C 134.719,79.675 134.386,80.675 133.5,81.5C 130.805,83.1776 128.139,84.8442 125.5,86.5C 123.122,84.1215 121.122,81.4549 119.5,78.5C 124.948,73.9356 130.615,69.6023 136.5,65.5 Z"/></g>
<g><path style="opacity:1" fill="#d20e11" d="M 35.5,68.5 C 37.8838,70.8847 40.5505,72.8847 43.5,74.5C 40.7607,81.1152 39.7607,88.1152 40.5,95.5C 40.5,96.5 40.5,97.5 40.5,98.5C 40.1667,99.1667 39.8333,99.8333 39.5,100.5C 40.0209,104.481 40.3542,108.481 40.5,112.5C 39.5,112.5 38.5,112.5 37.5,112.5C 36.8596,103.734 36.1929,95.0676 35.5,86.5C 35.5,80.8333 35.5,75.1667 35.5,69.5C 35.5,69.1667 35.5,68.8333 35.5,68.5 Z"/></g>
<g><path style="opacity:1" fill="#264626" d="M 82.5,68.5 C 83.2775,71.1122 84.9441,72.9455 87.5,74C 90.0301,74.3793 92.3635,75.2126 94.5,76.5C 94.5827,78.5695 95.5827,78.9028 97.5,77.5C 100.063,77.737 100.063,78.237 97.5,79C 99.1341,79.4935 100.801,79.6602 102.5,79.5C 101.5,80.1667 100.5,80.8333 99.5,81.5C 96.7222,79.2422 93.7222,78.9089 90.5,80.5C 91.4293,79.6851 92.4293,78.8518 93.5,78C 93.1667,77.6667 92.8333,77.3333 92.5,77C 90.1527,76.6664 87.8194,76.833 85.5,77.5C 85.5,78.5 85.5,79.5 85.5,80.5C 84.5,80.1667 83.8333,79.5 83.5,78.5C 87.6137,74.8938 86.9471,73.3938 81.5,74C 82.7112,73.1072 82.7112,72.2739 81.5,71.5C 79.634,72.5628 79.134,71.8961 80,69.5C 80.6708,68.7476 81.5041,68.4142 82.5,68.5 Z"/></g>
<g><path style="opacity:1" fill="#7e6964" d="M 60.5,72.5 C 62.7488,73.0798 64.4154,74.4131 65.5,76.5C 63.2512,75.9202 61.5846,74.5869 60.5,72.5 Z"/></g>
<g><path style="opacity:1" fill="#346933" d="M 104.5,56.5 C 106.877,58.0395 109.377,59.3728 112,60.5C 113.197,64.9517 113.697,69.285 113.5,73.5C 110.841,77.3297 107.175,79.3297 102.5,79.5C 100.801,79.6602 99.1341,79.4935 97.5,79C 100.063,78.237 100.063,77.737 97.5,77.5C 95.5827,78.9028 94.5827,78.5695 94.5,76.5C 97.9321,74.4227 101.599,72.756 105.5,71.5C 105.5,70.1667 105.5,68.8333 105.5,67.5C 106.88,66.8097 108.214,66.4764 109.5,66.5C 107.043,63.9493 104.043,62.4493 100.5,62C 102.5,61.6667 104.5,61.3333 106.5,61C 104.744,60.7978 103.078,60.2978 101.5,59.5C 102.025,58.8076 102.692,58.3076 103.5,58C 102.288,56.8932 102.621,56.3932 104.5,56.5 Z"/></g>
<g><path style="opacity:1" fill="#387234" d="M 82.5,67.5 C 82.5,67.8333 82.5,68.1667 82.5,68.5C 81.5041,68.4142 80.6708,68.7476 80,69.5C 79.134,71.8961 79.634,72.5628 81.5,71.5C 82.7112,72.2739 82.7112,73.1072 81.5,74C 86.9471,73.3938 87.6137,74.8938 83.5,78.5C 81.8008,78.6602 80.1341,78.4935 78.5,78C 74.6719,74.7355 73.5053,70.5689 75,65.5C 75.2233,63.1192 76.39,61.4525 78.5,60.5C 81.1312,59.1311 81.7978,59.7978 80.5,62.5C 81.0253,63.1924 81.6919,63.6924 82.5,64C 80.9095,65.0458 79.4095,66.2125 78,67.5C 77.3333,68.1667 77.3333,68.8333 78,69.5C 79.0195,68.3128 80.1861,67.3128 81.5,66.5C 82.1067,66.6236 82.44,66.9569 82.5,67.5 Z"/></g>
<g><path style="opacity:1" fill="#bc1710" d="M 52.5,66.5 C 52.5,66.8333 52.5,67.1667 52.5,67.5C 52.0604,70.962 52.0604,74.6287 52.5,78.5C 46.6613,77.2476 43.6613,79.581 43.5,85.5C 43.9569,86.2975 44.6236,86.6309 45.5,86.5C 45.5,88.8333 45.5,91.1667 45.5,93.5C 43.9724,94.3092 42.3057,94.9759 40.5,95.5C 39.7607,88.1152 40.7607,81.1152 43.5,74.5C 44.5754,75.5624 45.5754,75.5624 46.5,74.5C 47.3249,72.1987 47.9916,69.8654 48.5,67.5C 49.7079,66.7659 51.0413,66.4326 52.5,66.5 Z"/></g>
<g><path style="opacity:1" fill="#5b4842" d="M 65.5,76.5 C 67.4044,76.7376 68.7377,77.7376 69.5,79.5C 68.8333,79.5 68.1667,79.5 67.5,79.5C 66.8333,78.5 66.1667,77.5 65.5,76.5 Z"/></g>
<g><path style="opacity:1" fill="#fdebe6" d="M 319.5,77.5 C 321.604,77.2011 323.604,77.5344 325.5,78.5C 322.709,80.7888 320.042,83.2888 317.5,86C 315.926,86.6987 314.593,86.3654 313.5,85C 316.094,82.9135 318.094,80.4135 319.5,77.5 Z"/></g>
<g><path style="opacity:1" fill="#417731" d="M 90.5,80.5 C 89.2921,81.2341 87.9587,81.5674 86.5,81.5C 86.5,80.8333 86.1667,80.5 85.5,80.5C 85.5,79.5 85.5,78.5 85.5,77.5C 87.8194,76.833 90.1527,76.6664 92.5,77C 92.8333,77.3333 93.1667,77.6667 93.5,78C 92.4293,78.8518 91.4293,79.6851 90.5,80.5 Z"/></g>
<g><path style="opacity:1" fill="#f1f0f0" d="M 52.5,78.5 C 52.5,79.1667 52.5,79.8333 52.5,80.5C 52.5,81.8333 52.5,83.1667 52.5,84.5C 50.5853,84.2155 48.9187,84.5489 47.5,85.5C 46.5084,85.3284 45.8417,85.6618 45.5,86.5C 44.6236,86.6309 43.9569,86.2975 43.5,85.5C 43.6613,79.581 46.6613,77.2476 52.5,78.5 Z"/></g>
<g><path style="opacity:1" fill="#e4e3e2" d="M 53.5,81.5 C 56.4749,82.6551 59.1416,84.3218 61.5,86.5C 59.7484,88.2459 58.4151,90.2459 57.5,92.5C 54.0132,91.5554 52.6799,89.2221 53.5,85.5C 53.5,84.1667 53.5,82.8333 53.5,81.5 Z"/></g>
<g><path style="opacity:1" fill="#dddcd9" d="M 142.5,81.5 C 142.678,82.6948 143.011,83.8615 143.5,85C 142.824,86.6833 141.824,86.8499 140.5,85.5C 138.167,85.5 135.833,85.5 133.5,85.5C 133.662,87.5273 133.495,89.5273 133,91.5C 132.329,92.2524 131.496,92.5858 130.5,92.5C 128.833,90.5 127.167,88.5 125.5,86.5C 128.139,84.8442 130.805,83.1776 133.5,81.5C 134.386,80.675 134.719,79.675 134.5,78.5C 136.527,78.3379 138.527,78.5045 140.5,79C 141.756,79.4169 142.423,80.2502 142.5,81.5 Z"/></g>
<g><path style="opacity:1" fill="#a0735b" d="M 52.5,80.5 C 53.1667,80.5 53.5,80.8333 53.5,81.5C 53.5,82.8333 53.5,84.1667 53.5,85.5C 51.5,85.5 49.5,85.5 47.5,85.5C 48.9187,84.5489 50.5853,84.2155 52.5,84.5C 52.5,83.1667 52.5,81.8333 52.5,80.5 Z"/></g>
<g><path style="opacity:1" fill="#7f1b0c" d="M 151.5,96.5 C 151.167,96.5 150.833,96.5 150.5,96.5C 151.135,87.7663 150.468,79.4329 148.5,71.5C 149.122,70.3734 149.955,69.3734 151,68.5C 151.5,77.8274 151.666,87.1607 151.5,96.5 Z"/></g>
<g><path style="opacity:1" fill="#f0f0f0" d="M 441.5,85.5 C 444.91,85.3838 446.244,87.0504 445.5,90.5C 443.833,90.5 442.167,90.5 440.5,90.5C 440.366,88.7085 440.699,87.0418 441.5,85.5 Z"/></g>
<g><path style="opacity:1" fill="#eeeeee" d="M 477.5,85.5 C 481.676,84.8307 483.009,86.3307 481.5,90C 480.207,90.49 478.873,90.6567 477.5,90.5C 477.5,88.8333 477.5,87.1667 477.5,85.5 Z"/></g>
<g><path style="opacity:1" fill="#efefef" d="M 564.5,85.5 C 565.833,85.5 567.167,85.5 568.5,85.5C 568.5,87.1667 568.5,88.8333 568.5,90.5C 564.065,91.0776 562.732,89.4109 564.5,85.5 Z"/></g>
<g><path style="opacity:1" fill="#eeeded" d="M 400.5,86.5 C 402.792,86.2436 404.959,86.5769 407,87.5C 410.072,94.8843 413.238,102.218 416.5,109.5C 419.925,102.313 423.091,94.9801 426,87.5C 428.381,86.565 430.881,86.2317 433.5,86.5C 433.5,96.8333 433.5,107.167 433.5,117.5C 431.833,117.5 430.167,117.5 428.5,117.5C 428.666,109.493 428.5,101.493 428,93.5C 425.333,100.167 422.667,106.833 420,113.5C 419.084,116.959 417.084,117.959 414,116.5C 411,108.833 408,101.167 405,93.5C 404.5,101.493 404.334,109.493 404.5,117.5C 402.833,117.5 401.167,117.5 399.5,117.5C 399.192,107.085 399.525,96.7513 400.5,86.5 Z"/></g>
<g><path style="opacity:1" fill="#fef6f4" d="M 210.5,88.5 C 215.511,88.3341 220.511,88.5007 225.5,89C 233.069,91.5843 235.569,96.751 233,104.5C 231.552,108.488 228.719,110.988 224.5,112C 221.518,112.498 218.518,112.665 215.5,112.5C 215.5,117.167 215.5,121.833 215.5,126.5C 213.833,126.5 212.167,126.5 210.5,126.5C 210.5,113.833 210.5,101.167 210.5,88.5 Z"/></g>
<g><path style="opacity:1" fill="#fef5f2" d="M 241.5,88.5 C 248.5,88.5 255.5,88.5 262.5,88.5C 262.714,90.1439 262.38,91.6439 261.5,93C 256.511,93.4993 251.511,93.6659 246.5,93.5C 246.5,97.1667 246.5,100.833 246.5,104.5C 250.846,104.334 255.179,104.501 259.5,105C 260.337,106.011 260.67,107.178 260.5,108.5C 255.833,108.5 251.167,108.5 246.5,108.5C 246.5,113.167 246.5,117.833 246.5,122.5C 251.833,122.5 257.167,122.5 262.5,122.5C 262.5,123.833 262.5,125.167 262.5,126.5C 255.5,126.5 248.5,126.5 241.5,126.5C 241.5,113.833 241.5,101.167 241.5,88.5 Z"/></g>
<g><path style="opacity:1" fill="#fdf5f3" d="M 270.5,88.5 C 275.511,88.3341 280.511,88.5007 285.5,89C 294.078,92.5991 295.745,98.2657 290.5,106C 289.167,106.667 287.833,107.333 286.5,108C 291.312,113.258 294.312,119.425 295.5,126.5C 293.533,126.739 291.699,126.406 290,125.5C 288.249,120.222 285.749,115.389 282.5,111C 280.323,109.798 277.989,109.298 275.5,109.5C 275.5,115.167 275.5,120.833 275.5,126.5C 273.833,126.5 272.167,126.5 270.5,126.5C 270.5,113.833 270.5,101.167 270.5,88.5 Z"/></g>
<g><path style="opacity:1" fill="#fef1ed" d="M 302.5,88.5 C 304.167,88.5 305.833,88.5 307.5,88.5C 307.334,97.5062 307.5,106.506 308,115.5C 310.779,122.396 315.613,124.229 322.5,121C 323.893,119.829 324.727,118.329 325,116.5C 325.5,107.173 325.666,97.8393 325.5,88.5C 327.5,88.5 329.5,88.5 331.5,88.5C 331.926,98.9122 331.426,109.246 330,119.5C 327.012,124.997 322.346,127.663 316,127.5C 309.925,126.966 305.592,123.966 303,118.5C 302.5,108.506 302.334,98.5056 302.5,88.5 Z"/></g>
<g><path style="opacity:1" fill="#e9e9e9" d="M 508.5,88.5 C 512.908,88.062 514.575,90.062 513.5,94.5C 515.5,94.5 517.5,94.5 519.5,94.5C 519.241,98.0681 517.241,99.4015 513.5,98.5C 513.334,103.511 513.501,108.511 514,113.5C 515.458,114.747 516.958,114.747 518.5,113.5C 519.856,116.659 518.69,117.992 515,117.5C 512.333,117.833 510.333,116.833 509,114.5C 508.501,109.177 508.334,103.844 508.5,98.5C 505.5,98.8333 504.167,97.5 504.5,94.5C 505.833,94.5 507.167,94.5 508.5,94.5C 508.5,92.5 508.5,90.5 508.5,88.5 Z"/></g>
<g><path style="opacity:1" fill="#d70f12" d="M 47.5,85.5 C 49.5,85.5 51.5,85.5 53.5,85.5C 52.6799,89.2221 54.0132,91.5554 57.5,92.5C 61.7905,97.9871 63.4572,104.32 62.5,111.5C 62.1667,111.5 61.8333,111.5 61.5,111.5C 57.0908,108.433 52.4241,105.767 47.5,103.5C 47.5,102.833 47.1667,102.5 46.5,102.5C 46.5,101.5 46.5,100.5 46.5,99.5C 49.1667,99.5 51.8333,99.5 54.5,99.5C 55.5983,98.3991 55.765,97.0657 55,95.5C 54.6667,95.8333 54.3333,96.1667 54,96.5C 51.4125,94.8042 48.5792,93.8042 45.5,93.5C 45.5,91.1667 45.5,88.8333 45.5,86.5C 45.8417,85.6618 46.5084,85.3284 47.5,85.5 Z"/></g>
<g><path style="opacity:1" fill="#d70f12" d="M 140.5,85.5 C 141.265,88.0961 141.599,90.7628 141.5,93.5C 139.901,93.2322 138.568,93.5655 137.5,94.5C 135.847,94.6596 134.514,95.3263 133.5,96.5C 132.883,96.3893 132.383,96.056 132,95.5C 131.51,96.7932 131.343,98.1266 131.5,99.5C 134.833,99.5 138.167,99.5 141.5,99.5C 141.567,100.959 141.234,102.292 140.5,103.5C 135.167,106.167 129.833,108.833 124.5,111.5C 124.305,107.085 124.805,102.751 126,98.5C 126.792,95.8936 128.292,93.8936 130.5,92.5C 131.496,92.5858 132.329,92.2524 133,91.5C 133.495,89.5273 133.662,87.5273 133.5,85.5C 135.833,85.5 138.167,85.5 140.5,85.5 Z"/></g>
<g><path style="opacity:1" fill="#ac110b" d="M 146.5,95.5 C 143.609,94.5975 140.609,94.2641 137.5,94.5C 138.568,93.5655 139.901,93.2322 141.5,93.5C 141.599,90.7628 141.265,88.0961 140.5,85.5C 141.824,86.8499 142.824,86.6833 143.5,85C 143.011,83.8615 142.678,82.6948 142.5,81.5C 143.222,81.0825 143.722,80.4158 144,79.5C 144.147,84.9737 144.98,90.307 146.5,95.5 Z"/></g>
<g><path style="opacity:1" fill="#e31d1a" d="M 215.5,93.5 C 219.584,93.0431 223.417,93.7098 227,95.5C 229.33,105.009 225.497,109.009 215.5,107.5C 215.5,102.833 215.5,98.1667 215.5,93.5 Z"/></g>
<g><path style="opacity:1" fill="#e30e15" d="M 275.5,93.5 C 278.518,93.3354 281.518,93.502 284.5,94C 288,97.0035 288.333,100.337 285.5,104C 282.274,105.199 278.941,105.699 275.5,105.5C 275.5,101.5 275.5,97.5 275.5,93.5 Z"/></g>
<g><path style="opacity:1" fill="#f6f6f6" d="M 452.5,94.5 C 453.5,94.5 454.5,94.5 455.5,94.5C 455.351,95.552 455.517,96.552 456,97.5C 460.076,93.966 464.409,93.6326 469,96.5C 470.425,103.385 470.925,110.385 470.5,117.5C 469.167,117.5 467.833,117.5 466.5,117.5C 466.666,111.824 466.499,106.157 466,100.5C 465.592,98.5904 464.425,97.5904 462.5,97.5C 460.563,98.2604 458.73,99.2604 457,100.5C 456.501,106.157 456.334,111.824 456.5,117.5C 455.167,117.5 453.833,117.5 452.5,117.5C 452.5,109.833 452.5,102.167 452.5,94.5 Z"/></g>
<g><path style="opacity:1" fill="#f1f1f1" d="M 491.5,94.5 C 494.187,94.3359 496.854,94.5026 499.5,95C 500.973,95.7096 501.64,96.8762 501.5,98.5C 499.304,98.41 497.137,98.0767 495,97.5C 493.129,97.7094 491.962,98.7094 491.5,100.5C 495.027,103.076 498.527,105.743 502,108.5C 503.157,112.346 501.991,115.179 498.5,117C 495.167,117.667 491.833,117.667 488.5,117C 487.253,115.506 487.253,114.006 488.5,112.5C 492.322,115.496 495.656,115.163 498.5,111.5C 495.177,108.738 491.677,106.071 488,103.5C 486.665,99.3919 487.832,96.3919 491.5,94.5 Z"/></g>
<g><path style="opacity:1" fill="#ededed" d="M 527.5,94.5 C 538.124,92.6258 542.457,96.7925 540.5,107C 535.845,107.499 531.179,107.666 526.5,107.5C 526.081,110.325 527.081,112.491 529.5,114C 532.996,114.695 536.33,114.195 539.5,112.5C 540.429,113.689 540.762,115.022 540.5,116.5C 526.62,120.777 520.453,115.777 522,101.5C 522.967,98.3794 524.8,96.046 527.5,94.5 Z"/></g>
<g><path style="opacity:1" fill="#f4f4f3" d="M 547.5,94.5 C 549.451,94.2267 550.951,94.8934 552,96.5C 554.153,94.5561 556.653,94.0561 559.5,95C 560.337,96.0113 560.67,97.1779 560.5,98.5C 557.03,97.8748 554.196,98.8748 552,101.5C 551.501,106.823 551.334,112.156 551.5,117.5C 550.167,117.5 548.833,117.5 547.5,117.5C 547.5,109.833 547.5,102.167 547.5,94.5 Z"/></g>
<g><path style="opacity:1" fill="#f3f3f3" d="M 579.5,94.5 C 591.99,92.8227 597.157,98.156 595,110.5C 591.903,117.132 586.736,119.299 579.5,117C 574.538,113.457 572.704,108.624 574,102.5C 575.243,99.4241 577.077,96.7574 579.5,94.5 Z"/></g>
<g><path style="opacity:1" fill="#857624" d="M 45.5,93.5 C 48.5792,93.8042 51.4125,94.8042 54,96.5C 54.3333,96.1667 54.6667,95.8333 55,95.5C 55.765,97.0657 55.5983,98.3991 54.5,99.5C 54.1583,98.6618 53.4916,98.3284 52.5,98.5C 49.4792,97.3198 46.3126,96.3198 43,95.5C 42.6232,96.9423 41.7899,97.9423 40.5,98.5C 40.5,97.5 40.5,96.5 40.5,95.5C 42.3057,94.9759 43.9724,94.3092 45.5,93.5 Z"/></g>
<g><path style="opacity:1" fill="#897b21" d="M 137.5,94.5 C 140.609,94.2641 143.609,94.5975 146.5,95.5C 146.5,96.1667 146.5,96.8333 146.5,97.5C 142.588,97.2119 138.421,97.5453 134,98.5C 132.316,98.3166 132.15,97.6499 133.5,96.5C 134.514,95.3263 135.847,94.6596 137.5,94.5 Z"/></g>
<g><path style="opacity:1" fill="#e7e7e7" d="M 440.5,94.5 C 442.167,94.5 443.833,94.5 445.5,94.5C 445.5,102.167 445.5,109.833 445.5,117.5C 443.833,117.5 442.167,117.5 440.5,117.5C 440.5,109.833 440.5,102.167 440.5,94.5 Z"/></g>
<g><path style="opacity:1" fill="#f9f9f9" d="M 477.5,94.5 C 478.833,94.5 480.167,94.5 481.5,94.5C 481.5,102.167 481.5,109.833 481.5,117.5C 480.167,117.5 478.833,117.5 477.5,117.5C 477.5,109.833 477.5,102.167 477.5,94.5 Z"/></g>
<g><path style="opacity:1" fill="#f8f8f7" d="M 564.5,94.5 C 565.833,94.5 567.167,94.5 568.5,94.5C 568.5,102.167 568.5,109.833 568.5,117.5C 567.167,117.5 565.833,117.5 564.5,117.5C 564.5,109.833 564.5,102.167 564.5,94.5 Z"/></g>
<g><path style="opacity:1" fill="#5c5b5b" d="M 529.5,97.5 C 534.206,96.8811 536.873,98.8811 537.5,103.5C 533.833,103.5 530.167,103.5 526.5,103.5C 526.461,100.911 527.461,98.911 529.5,97.5 Z"/></g>
<g><path style="opacity:1" fill="#461e08" d="M 52.5,98.5 C 49.4281,98.1826 46.4281,98.5159 43.5,99.5C 44.1882,100.855 45.1882,101.855 46.5,102.5C 47.1667,102.5 47.5,102.833 47.5,103.5C 46.8333,103.5 46.5,103.833 46.5,104.5C 45.8333,105.167 45.1667,105.833 44.5,106.5C 41.456,105.567 39.7893,103.567 39.5,100.5C 39.8333,99.8333 40.1667,99.1667 40.5,98.5C 41.7899,97.9423 42.6232,96.9423 43,95.5C 46.3126,96.3198 49.4792,97.3198 52.5,98.5 Z"/></g>
<g><path style="opacity:1" fill="#5c5b5b" d="M 582.5,97.5 C 590.963,98.7518 593.463,103.418 590,111.5C 582.854,116.732 579.02,114.899 578.5,106C 578.134,102.236 579.467,99.403 582.5,97.5 Z"/></g>
<g><path style="opacity:1" fill="#851104" d="M 52.5,98.5 C 53.4916,98.3284 54.1583,98.6618 54.5,99.5C 51.8333,99.5 49.1667,99.5 46.5,99.5C 46.5,100.5 46.5,101.5 46.5,102.5C 45.1882,101.855 44.1882,100.855 43.5,99.5C 46.4281,98.5159 49.4281,98.1826 52.5,98.5 Z"/></g>
<g><path style="opacity:1" fill="#63605c" d="M 35.5,86.5 C 36.1929,95.0676 36.8596,103.734 37.5,112.5C 36.8333,113.167 36.1667,113.833 35.5,114.5C 35.5,105.167 35.5,95.8333 35.5,86.5 Z"/></g>
<g><path style="opacity:1" fill="#918119" d="M 140.5,103.5 C 142.164,105.679 141.83,107.512 139.5,109C 135.286,111.024 131.119,113.191 127,115.5C 126.617,114.944 126.117,114.611 125.5,114.5C 124.89,113.609 124.557,112.609 124.5,111.5C 129.833,108.833 135.167,106.167 140.5,103.5 Z"/></g>
<g><path style="opacity:1" fill="#591b05" d="M 133.5,96.5 C 132.15,97.6499 132.316,98.3166 134,98.5C 138.421,97.5453 142.588,97.2119 146.5,97.5C 147.742,99.3888 147.742,101.389 146.5,103.5C 142.607,108.222 138.107,112.556 133,116.5C 130.183,115.494 128.349,116.494 127.5,119.5C 126.463,118.07 125.796,116.403 125.5,114.5C 126.117,114.611 126.617,114.944 127,115.5C 131.119,113.191 135.286,111.024 139.5,109C 141.83,107.512 142.164,105.679 140.5,103.5C 141.234,102.292 141.567,100.959 141.5,99.5C 138.167,99.5 134.833,99.5 131.5,99.5C 131.343,98.1266 131.51,96.7932 132,95.5C 132.383,96.056 132.883,96.3893 133.5,96.5 Z"/></g>
<g><path style="opacity:1" fill="#a8960d" d="M 46.5,104.5 C 46.5,103.833 46.8333,103.5 47.5,103.5C 52.4241,105.767 57.0908,108.433 61.5,111.5C 61.631,112.239 61.4643,112.906 61,113.5C 56.3903,110.113 51.557,107.113 46.5,104.5 Z"/></g>
<g><path style="opacity:1" fill="#b4100b" d="M 146.5,103.5 C 146.19,106.713 146.523,109.713 147.5,112.5C 145.833,113.5 144.5,114.833 143.5,116.5C 143.663,114.143 143.497,111.81 143,109.5C 140.961,111.874 138.628,113.874 136,115.5C 135.22,117.387 135.387,119.054 136.5,120.5C 134.497,122.982 131.831,123.982 128.5,123.5C 127.766,122.292 127.433,120.959 127.5,119.5C 128.349,116.494 130.183,115.494 133,116.5C 138.107,112.556 142.607,108.222 146.5,103.5 Z"/></g>
<g><path style="opacity:1" fill="#da0a12" d="M 50.5,120.5 C 46.9829,119.652 44.3163,117.652 42.5,114.5C 42.2148,112.712 42.5481,111.045 43.5,109.5C 45.1311,111.297 47.1311,112.464 49.5,113C 51.6458,115.357 51.9791,117.857 50.5,120.5 Z"/></g>
<g><path style="opacity:1" fill="#931107" d="M 39.5,100.5 C 39.7893,103.567 41.456,105.567 44.5,106.5C 45.5,106.833 46.1667,107.5 46.5,108.5C 48.7882,111.456 51.7882,113.123 55.5,113.5C 55.8333,113.5 56.1667,113.5 56.5,113.5C 57.5274,115.194 58.8608,116.527 60.5,117.5C 60.7373,118.791 60.404,119.791 59.5,120.5C 58.3373,118.018 56.3373,116.684 53.5,116.5C 53.3713,118.216 53.038,119.883 52.5,121.5C 51.5084,121.672 50.8417,121.338 50.5,120.5C 51.9791,117.857 51.6458,115.357 49.5,113C 47.1311,112.464 45.1311,111.297 43.5,109.5C 42.5481,111.045 42.2148,112.712 42.5,114.5C 41.5,114.167 40.8333,113.5 40.5,112.5C 40.3542,108.481 40.0209,104.481 39.5,100.5 Z"/></g>
<g><path style="opacity:1" fill="#df0d13" d="M 143.5,116.5 C 141.758,118.769 139.424,120.102 136.5,120.5C 135.387,119.054 135.22,117.387 136,115.5C 138.628,113.874 140.961,111.874 143,109.5C 143.497,111.81 143.663,114.143 143.5,116.5 Z"/></g>
<g><path style="opacity:1" fill="#441103" d="M 46.5,108.5 C 49.9922,109.41 52.9922,111.076 55.5,113.5C 51.7882,113.123 48.7882,111.456 46.5,108.5 Z"/></g>
<g><path style="opacity:1" fill="#70641d" d="M 46.5,104.5 C 51.557,107.113 56.3903,110.113 61,113.5C 61.4643,112.906 61.631,112.239 61.5,111.5C 61.8333,111.5 62.1667,111.5 62.5,111.5C 62.5674,112.959 62.2341,114.292 61.5,115.5C 59.8333,114.833 58.1667,114.167 56.5,113.5C 56.1667,113.5 55.8333,113.5 55.5,113.5C 52.9922,111.076 49.9922,109.41 46.5,108.5C 46.1667,107.5 45.5,106.833 44.5,106.5C 45.1667,105.833 45.8333,105.167 46.5,104.5 Z"/></g>
<g><path style="opacity:1" fill="#f3f2f2" d="M 37.5,112.5 C 38.5,112.5 39.5,112.5 40.5,112.5C 40.8333,113.5 41.5,114.167 42.5,114.5C 44.3163,117.652 46.9829,119.652 50.5,120.5C 50.8417,121.338 51.5084,121.672 52.5,121.5C 53.9899,123.28 55.9899,123.946 58.5,123.5C 57.5037,128.154 56.5037,132.821 55.5,137.5C 56.0478,141.479 57.3811,145.145 59.5,148.5C 57.7162,148.107 56.0495,147.441 54.5,146.5C 52.5,146.5 50.5,146.5 48.5,146.5C 46.7354,145.539 44.7354,145.205 42.5,145.5C 40.8333,144.167 39.1667,142.833 37.5,141.5C 37.5,131.833 37.5,122.167 37.5,112.5 Z"/></g>
<g><path style="opacity:1" fill="#f7f7f6" d="M 147.5,112.5 C 148.5,112.5 149.5,112.5 150.5,112.5C 150.26,122.583 149.594,132.583 148.5,142.5C 147.833,142.833 147.167,143.167 146.5,143.5C 145.679,140.359 145.179,137.025 145,133.5C 144.177,137.468 142.677,141.135 140.5,144.5C 137.966,145.777 135.466,145.777 133,144.5C 131.608,146.842 130.775,146.842 130.5,144.5C 131.889,137.333 131.223,130.333 128.5,123.5C 131.831,123.982 134.497,122.982 136.5,120.5C 139.424,120.102 141.758,118.769 143.5,116.5C 144.5,114.833 145.833,113.5 147.5,112.5 Z"/></g>
<g><path style="opacity:1" fill="#3d1805" d="M 56.5,113.5 C 58.1667,114.167 59.8333,114.833 61.5,115.5C 61.6716,116.492 61.3382,117.158 60.5,117.5C 58.8608,116.527 57.5274,115.194 56.5,113.5 Z"/></g>
<g><path style="opacity:1" fill="#d70e12" d="M 59.5,120.5 C 59.7373,121.791 59.404,122.791 58.5,123.5C 55.9899,123.946 53.9899,123.28 52.5,121.5C 53.038,119.883 53.3713,118.216 53.5,116.5C 56.3373,116.684 58.3373,118.018 59.5,120.5 Z"/></g>
<g><path style="opacity:1" fill="#9f9d9c" d="M 37.5,112.5 C 37.5,122.167 37.5,131.833 37.5,141.5C 37.6741,143.861 38.0074,146.194 38.5,148.5C 37.7784,148.082 37.2784,147.416 37,146.5C 35.9013,135.86 35.4013,125.194 35.5,114.5C 36.1667,113.833 36.8333,113.167 37.5,112.5 Z"/></g>
<g><path style="opacity:1" fill="#dbcc47" d="M 119.5,78.5 C 121.122,81.4549 123.122,84.1215 125.5,86.5C 127.167,88.5 128.833,90.5 130.5,92.5C 128.292,93.8936 126.792,95.8936 126,98.5C 124.805,102.751 124.305,107.085 124.5,111.5C 124.557,112.609 124.89,113.609 125.5,114.5C 125.796,116.403 126.463,118.07 127.5,119.5C 127.433,120.959 127.766,122.292 128.5,123.5C 131.223,130.333 131.889,137.333 130.5,144.5C 129.512,145.795 128.512,147.128 127.5,148.5C 120.214,155.484 111.548,158.484 101.5,157.5C 100.5,157.5 99.5,157.5 98.5,157.5C 96.6675,158.248 95.0009,159.248 93.5,160.5C 91.4973,158.018 88.8306,157.018 85.5,157.5C 75.4923,158.491 66.8256,155.491 59.5,148.5C 57.3811,145.145 56.0478,141.479 55.5,137.5C 56.5037,132.821 57.5037,128.154 58.5,123.5C 59.404,122.791 59.7373,121.791 59.5,120.5C 60.404,119.791 60.7373,118.791 60.5,117.5C 61.3382,117.158 61.6716,116.492 61.5,115.5C 62.2341,114.292 62.5674,112.959 62.5,111.5C 63.4572,104.32 61.7905,97.9871 57.5,92.5C 58.4151,90.2459 59.7484,88.2459 61.5,86.5C 63.4707,84.1918 65.4707,81.8585 67.5,79.5C 68.1667,79.5 68.8333,79.5 69.5,79.5C 74.8751,82.5047 80.5417,83.1714 86.5,81.5C 87.9587,81.5674 89.2921,81.2341 90.5,80.5C 93.7222,78.9089 96.7222,79.2422 99.5,81.5C 106.682,83.4871 113.349,82.4871 119.5,78.5 Z"/></g>
<g><path style="opacity:1" fill="#d71013" d="M 62.5,120.5 C 83.5,120.5 104.5,120.5 125.5,120.5C 127.526,125.811 128.859,131.311 129.5,137C 128.474,145.026 124.141,150.359 116.5,153C 110.564,154.139 104.564,154.805 98.5,155C 96.99,155.85 95.49,156.683 94,157.5C 91.8887,156.528 89.7221,155.695 87.5,155C 62.1001,155.469 53.7668,143.969 62.5,120.5 Z"/></g>
<g><path style="opacity:1" fill="#9c842e" d="M 121.5,136.5 C 121.163,133.664 119.829,132.998 117.5,134.5C 117.756,132.208 117.423,130.041 116.5,128C 115.056,127.219 113.723,127.386 112.5,128.5C 113.59,129.609 113.59,130.609 112.5,131.5C 108.846,130.1 108.512,128.1 111.5,125.5C 116.721,123.527 120.221,125.194 122,130.5C 122.789,132.712 122.622,134.712 121.5,136.5 Z"/></g>
<g><path style="opacity:1" fill="#c2ad26" d="M 63.5,118.5 C 73.1667,118.5 82.8333,118.5 92.5,118.5C 93.1667,119.833 93.8333,119.833 94.5,118.5C 95.1667,118.5 95.8333,118.5 96.5,118.5C 104.167,118.5 111.833,118.5 119.5,118.5C 121.167,118.5 122.833,118.5 124.5,118.5C 124.833,119.167 125.167,119.833 125.5,120.5C 104.5,120.5 83.5,120.5 62.5,120.5C 62.8333,119.833 63.1667,119.167 63.5,118.5 Z"/></g>
<g><path style="opacity:1" fill="#5f4d20" d="M 70.5,115.5 C 71.1667,115.5 71.8333,115.5 72.5,115.5C 73.5145,116.765 75.0145,117.431 77,117.5C 81.8731,117.434 86.7064,117.101 91.5,116.5C 91.8333,116.5 92.1667,116.5 92.5,116.5C 92.5,117.167 92.5,117.833 92.5,118.5C 82.8333,118.5 73.1667,118.5 63.5,118.5C 63.5,118.167 63.5,117.833 63.5,117.5C 66.3878,118.01 68.7211,117.344 70.5,115.5 Z"/></g>
<g><path style="opacity:1" fill="#b29c3f" d="M 83.5,107.5 C 82.9862,109.512 82.8195,111.512 83,113.5C 86.0893,114.028 88.9227,115.028 91.5,116.5C 86.7064,117.101 81.8731,117.434 77,117.5C 75.0145,117.431 73.5145,116.765 72.5,115.5C 72.5,114.833 72.5,114.167 72.5,113.5C 74.717,114.369 77.0504,114.702 79.5,114.5C 79.5,113.167 79.5,111.833 79.5,110.5C 80.29,111.609 80.79,112.942 81,114.5C 81.1558,111.809 81.9891,109.476 83.5,107.5 Z"/></g>
<g><path style="opacity:1" fill="#d2974e" d="M 83.5,107.5 C 81.9891,109.476 81.1558,111.809 81,114.5C 80.79,112.942 80.29,111.609 79.5,110.5C 79.5,108.833 79.5,107.167 79.5,105.5C 77.8333,105.5 76.1667,105.5 74.5,105.5C 73.36,108.025 72.6933,110.692 72.5,113.5C 71.4415,112.4 70.6082,111.066 70,109.5C 69.5099,111.545 69.6765,113.545 70.5,115.5C 68.7211,117.344 66.3878,118.01 63.5,117.5C 63.5,116.833 63.8333,116.5 64.5,116.5C 68.3934,115.5 69.3934,113.167 67.5,109.5C 68.5,107.833 69.5,106.167 70.5,104.5C 68.7438,102.809 68.2438,100.809 69,98.5C 69.3333,98.8333 69.6667,99.1667 70,99.5C 71.4733,97.9929 73.3066,97.3262 75.5,97.5C 78.5825,97.8795 81.5825,98.5462 84.5,99.5C 85.1429,95.5994 84.1429,92.266 81.5,89.5C 84.1568,86.7994 86.4902,86.966 88.5,90C 87.8333,91 87.1667,92 86.5,93C 88.4579,98.5746 87.4579,103.408 83.5,107.5 Z"/></g>
<g><path style="opacity:1" fill="#e7e7e5" d="M 124.5,118.5 C 122.833,118.5 121.167,118.5 119.5,118.5C 117.031,117.683 114.365,117.183 111.5,117C 109.722,114.865 109.055,112.365 109.5,109.5C 111.859,108.824 114.192,107.991 116.5,107C 115.66,105.334 116.16,105.167 118,106.5C 118.167,106.167 118.333,105.833 118.5,105.5C 117.624,104.749 116.624,104.249 115.5,104C 117.167,103.667 118.833,103.333 120.5,103C 118.009,102.374 118.009,101.541 120.5,100.5C 121.451,96.8923 120.618,96.8923 118,100.5C 117.217,98.5665 117.717,97.0665 119.5,96C 117.942,95.79 116.609,95.29 115.5,94.5C 114.43,91.941 112.93,89.6077 111,87.5C 110.885,89.1068 111.385,90.6068 112.5,92C 111.873,94.1351 111.373,96.3018 111,98.5C 110.333,93.1667 109.667,93.1667 109,98.5C 108.429,94.0266 106.762,90.0266 104,86.5C 103.167,88 102,89.1667 100.5,90C 104.19,90.4244 104.357,91.2577 101,92.5C 100.691,93.7659 100.191,94.9326 99.5,96C 101.211,97.1332 101.711,98.6332 101,100.5C 100.667,100.167 100.333,99.8333 100,99.5C 99.51,100.793 99.3433,102.127 99.5,103.5C 100.552,103.351 101.552,103.517 102.5,104C 98.6205,105.857 98.9538,107.19 103.5,108C 103.167,108.333 102.833,108.667 102.5,109C 104.14,109.348 105.473,108.848 106.5,107.5C 108.027,110.796 107.693,113.962 105.5,117C 102.305,117.181 99.3054,117.681 96.5,118.5C 95.8333,118.5 95.1667,118.5 94.5,118.5C 94.3335,106.162 94.5001,93.8288 95,81.5C 102.138,85.0932 109.471,85.4266 117,82.5C 120.62,85.1168 123.953,88.1168 127,91.5C 125.862,94.055 124.529,96.7216 123,99.5C 122.082,105.979 122.582,112.312 124.5,118.5 Z"/></g>
<g><path style="opacity:1" fill="#a66332" d="M 109.5,109.5 C 109.055,112.365 109.722,114.865 111.5,117C 114.365,117.183 117.031,117.683 119.5,118.5C 111.833,118.5 104.167,118.5 96.5,118.5C 99.3054,117.681 102.305,117.181 105.5,117C 107.693,113.962 108.027,110.796 106.5,107.5C 109.108,105.77 109.108,103.937 106.5,102C 107.667,101.5 108.5,100.667 109,99.5C 110.495,101.11 110.661,102.776 109.5,104.5C 110.376,105.251 111.376,105.751 112.5,106C 110.574,106.422 109.574,107.589 109.5,109.5 Z"/></g>
<g><path style="opacity:1" fill="#a4aa7c" d="M 115.5,94.5 C 116.609,95.29 117.942,95.79 119.5,96C 117.717,97.0665 117.217,98.5665 118,100.5C 120.618,96.8923 121.451,96.8923 120.5,100.5C 118.009,101.541 118.009,102.374 120.5,103C 118.833,103.333 117.167,103.667 115.5,104C 116.624,104.249 117.624,104.749 118.5,105.5C 118.333,105.833 118.167,106.167 118,106.5C 116.16,105.167 115.66,105.334 116.5,107C 114.192,107.991 111.859,108.824 109.5,109.5C 109.574,107.589 110.574,106.422 112.5,106C 111.376,105.751 110.376,105.251 109.5,104.5C 110.661,102.776 110.495,101.11 109,99.5C 108.5,100.667 107.667,101.5 106.5,102C 109.108,103.937 109.108,105.77 106.5,107.5C 105.473,108.848 104.14,109.348 102.5,109C 102.833,108.667 103.167,108.333 103.5,108C 98.9538,107.19 98.6205,105.857 102.5,104C 101.552,103.517 100.552,103.351 99.5,103.5C 99.3433,102.127 99.51,100.793 100,99.5C 100.333,99.8333 100.667,100.167 101,100.5C 101.711,98.6332 101.211,97.1332 99.5,96C 100.191,94.9326 100.691,93.7659 101,92.5C 104.357,91.2577 104.19,90.4244 100.5,90C 102,89.1667 103.167,88 104,86.5C 106.762,90.0266 108.429,94.0266 109,98.5C 109.667,93.1667 110.333,93.1667 111,98.5C 111.373,96.3018 111.873,94.1351 112.5,92C 111.385,90.6068 110.885,89.1068 111,87.5C 112.93,89.6077 114.43,91.941 115.5,94.5 Z"/></g>
<g><path style="opacity:1" fill="#a1ae5d" d="M 115.5,94.5 C 115.275,92.2841 116.108,90.6174 118,89.5C 118.483,90.448 118.649,91.448 118.5,92.5C 119.552,92.3505 120.552,92.5172 121.5,93C 119.655,94.128 117.655,94.628 115.5,94.5 Z"/></g>
<g><path style="opacity:1" fill="#5dbae1" d="M 92.5,116.5 C 92.1667,116.5 91.8333,116.5 91.5,116.5C 88.9227,115.028 86.0893,114.028 83,113.5C 82.8195,111.512 82.9862,109.512 83.5,107.5C 87.4579,103.408 88.4579,98.5746 86.5,93C 87.1667,92 87.8333,91 88.5,90C 86.4902,86.966 84.1568,86.7994 81.5,89.5C 84.1429,92.266 85.1429,95.5994 84.5,99.5C 81.5825,98.5462 78.5825,97.8795 75.5,97.5C 73.3066,97.3262 71.4733,97.9929 70,99.5C 69.6667,99.1667 69.3333,98.8333 69,98.5C 68.2438,100.809 68.7438,102.809 70.5,104.5C 69.5,106.167 68.5,107.833 67.5,109.5C 69.3934,113.167 68.3934,115.5 64.5,116.5C 65.3973,111.86 65.5639,107.194 65,102.5C 63.5788,98.3716 62.2455,94.3716 61,90.5C 64.0162,87.6511 66.8496,84.6511 69.5,81.5C 72.5398,83.9351 76.0398,84.9351 80,84.5C 84.2968,84.5173 88.4635,83.8506 92.5,82.5C 92.5,93.8333 92.5,105.167 92.5,116.5 Z"/></g>
<g><path style="opacity:1" fill="#67accb" d="M 72.5,113.5 C 72.5,114.167 72.5,114.833 72.5,115.5C 71.8333,115.5 71.1667,115.5 70.5,115.5C 69.6765,113.545 69.5099,111.545 70,109.5C 70.6082,111.066 71.4415,112.4 72.5,113.5 Z"/></g>
<g><path style="opacity:1" fill="#60b9df" d="M 79.5,110.5 C 79.5,111.833 79.5,113.167 79.5,114.5C 77.0504,114.702 74.717,114.369 72.5,113.5C 72.6933,110.692 73.36,108.025 74.5,105.5C 76.1667,105.5 77.8333,105.5 79.5,105.5C 79.5,107.167 79.5,108.833 79.5,110.5 Z"/></g>
<g><path style="opacity:1" fill="#f3f3f3" d="M 413.5,128.5 C 414.833,128.5 416.167,128.5 417.5,128.5C 417.5,139.833 417.5,151.167 417.5,162.5C 416.5,162.5 415.5,162.5 414.5,162.5C 414.026,158.843 412.693,158.676 410.5,162C 401.961,163.469 397.628,159.802 397.5,151C 397.439,144.258 400.606,140.091 407,138.5C 409.406,138.703 411.406,139.703 413,141.5C 413.499,137.179 413.666,132.846 413.5,128.5 Z"/></g>
<g><path style="opacity:1" fill="#f3f3f3" d="M 498.5,128.5 C 499.833,128.5 501.167,128.5 502.5,128.5C 502.5,139.833 502.5,151.167 502.5,162.5C 501.167,162.5 499.833,162.5 498.5,162.5C 498.649,161.448 498.483,160.448 498,159.5C 488.252,164.966 483.085,161.966 482.5,150.5C 482.108,143.594 485.275,139.594 492,138.5C 494.207,139.03 496.207,140.03 498,141.5C 498.499,137.179 498.666,132.846 498.5,128.5 Z"/></g>
<g><path style="opacity:1" fill="#ebebea" d="M 621.5,128.5 C 622.978,128.238 624.311,128.571 625.5,129.5C 623.775,132.316 621.608,134.65 619,136.5C 618.5,136.167 618,135.833 617.5,135.5C 618.861,133.15 620.194,130.816 621.5,128.5 Z"/></g>
<g><path style="opacity:1" fill="#ddc746" d="M 103.5,130.5 C 103.5,131.167 103.5,131.833 103.5,132.5C 99.1167,130.252 94.7834,128.919 90.5,128.5C 90.2053,130.735 90.5386,132.735 91.5,134.5C 90.469,135.249 89.3024,135.915 88,136.5C 87.6667,134.5 87.3333,132.5 87,130.5C 86.51,131.793 86.3433,133.127 86.5,134.5C 85.2502,134.423 84.4169,133.756 84,132.5C 83.4177,135.668 82.4177,136.001 81,133.5C 80.6667,134.167 80.3333,134.833 80,135.5C 78.8867,133.671 77.3867,132.837 75.5,133C 77.0375,134.707 78.7041,136.207 80.5,137.5C 82.2972,138.73 84.2972,139.396 86.5,139.5C 86.7373,140.791 86.404,141.791 85.5,142.5C 84.1667,142.5 82.8333,142.5 81.5,142.5C 78.4089,139.869 74.9089,137.869 71,136.5C 69.5657,136.862 68.3991,137.528 67.5,138.5C 67.3433,137.127 67.51,135.793 68,134.5C 70.9016,131.324 74.0683,128.49 77.5,126C 84.0174,123.092 90.6841,122.758 97.5,125C 99.9962,126.331 101.996,128.164 103.5,130.5 Z"/></g>
<g><path style="opacity:1" fill="#ececeb" d="M 598.5,130.5 C 600.167,130.5 601.833,130.5 603.5,130.5C 604.167,134.5 602.5,136.167 598.5,135.5C 598.5,133.833 598.5,132.167 598.5,130.5 Z"/></g>
<g><path style="opacity:1" fill="#f8f8f8" d="M 477.5,134.5 C 473.167,134.5 468.833,134.5 464.5,134.5C 464.5,137.833 464.5,141.167 464.5,144.5C 468.167,144.5 471.833,144.5 475.5,144.5C 475.5,145.5 475.5,146.5 475.5,147.5C 471.833,147.5 468.167,147.5 464.5,147.5C 464.5,151.167 464.5,154.833 464.5,158.5C 468.833,158.5 473.167,158.5 477.5,158.5C 477.5,159.833 477.5,161.167 477.5,162.5C 471.907,162.807 466.407,162.473 461,161.5C 460.5,151.506 460.334,141.506 460.5,131.5C 466.167,131.5 471.833,131.5 477.5,131.5C 477.5,132.5 477.5,133.5 477.5,134.5 Z"/></g>
<g><path style="opacity:1" fill="#908c8a" d="M 150.5,96.5 C 150.833,96.5 151.167,96.5 151.5,96.5C 151.667,112.17 151.5,127.837 151,143.5C 150.722,144.416 150.222,145.082 149.5,145.5C 149.737,144.209 149.404,143.209 148.5,142.5C 149.594,132.583 150.26,122.583 150.5,112.5C 150.5,107.167 150.5,101.833 150.5,96.5 Z"/></g>
<g><path style="opacity:1" fill="#e2c914" d="M 103.5,132.5 C 102.984,134.2 101.984,135.533 100.5,136.5C 99.8076,135.975 99.3076,135.308 99,134.5C 97.9505,135.517 96.7839,135.684 95.5,135C 96.6734,131.89 96.1734,131.723 94,134.5C 93.6667,133.5 93.3333,132.5 93,131.5C 92.5357,132.094 92.369,132.761 92.5,133.5C 91.8333,133.5 91.5,133.833 91.5,134.5C 90.5386,132.735 90.2053,130.735 90.5,128.5C 94.7834,128.919 99.1167,130.252 103.5,132.5 Z"/></g>
<g><path style="opacity:1" fill="#917116" d="M 86.5,134.5 C 85.4863,135.674 84.153,136.34 82.5,136.5C 81.5084,136.328 80.8417,136.662 80.5,137.5C 78.7041,136.207 77.0375,134.707 75.5,133C 77.3867,132.837 78.8867,133.671 80,135.5C 80.3333,134.833 80.6667,134.167 81,133.5C 82.4177,136.001 83.4177,135.668 84,132.5C 84.4169,133.756 85.2502,134.423 86.5,134.5 Z"/></g>
<g><path style="opacity:1" fill="#8c8c8b" d="M 477.5,134.5 C 473.702,135.483 469.702,135.817 465.5,135.5C 465.5,138.167 465.5,140.833 465.5,143.5C 469.042,143.187 472.375,143.521 475.5,144.5C 471.833,144.5 468.167,144.5 464.5,144.5C 464.5,141.167 464.5,137.833 464.5,134.5C 468.833,134.5 473.167,134.5 477.5,134.5 Z"/></g>
<g><path style="opacity:1" fill="#150b03" d="M 81.5,142.5 C 78.2904,141.828 75.1237,140.828 72,139.5C 70.4363,139.989 68.9363,140.322 67.5,140.5C 67.5,139.833 67.5,139.167 67.5,138.5C 68.3991,137.528 69.5657,136.862 71,136.5C 74.9089,137.869 78.4089,139.869 81.5,142.5 Z"/></g>
<g><path style="opacity:1" fill="#bea52d" d="M 103.5,130.5 C 105.736,131.389 107.736,132.722 109.5,134.5C 112.199,135.729 114.865,135.729 117.5,134.5C 119.829,132.998 121.163,133.664 121.5,136.5C 120.857,138.076 119.857,139.41 118.5,140.5C 116.799,140.966 115.299,140.966 114,140.5C 111.602,143.054 109.269,143.054 107,140.5C 106.586,140.957 106.086,141.291 105.5,141.5C 101.472,139.776 97.6384,137.776 94,135.5C 93.6667,135.833 93.3333,136.167 93,136.5C 92.5172,135.552 92.3505,134.552 92.5,133.5C 92.369,132.761 92.5357,132.094 93,131.5C 93.3333,132.5 93.6667,133.5 94,134.5C 96.1734,131.723 96.6734,131.89 95.5,135C 96.7839,135.684 97.9505,135.517 99,134.5C 99.3076,135.308 99.8076,135.975 100.5,136.5C 101.984,135.533 102.984,134.2 103.5,132.5C 103.5,131.833 103.5,131.167 103.5,130.5 Z"/></g>
<g><path style="opacity:1" fill="#1b0a02" d="M 80.5,137.5 C 80.8417,136.662 81.5084,136.328 82.5,136.5C 84.631,137.314 86.9644,137.814 89.5,138C 91.0629,138.759 92.0629,139.926 92.5,141.5C 92.5,141.833 92.5,142.167 92.5,142.5C 90.9468,140.615 88.9468,139.615 86.5,139.5C 84.2972,139.396 82.2972,138.73 80.5,137.5 Z"/></g>
<g><path style="opacity:1" fill="#cecdca" d="M 146.5,143.5 C 145.965,145.446 144.632,146.446 142.5,146.5C 141.833,146.5 141.167,146.5 140.5,146.5C 137.615,146.194 134.948,146.527 132.5,147.5C 130.883,148.038 129.216,148.371 127.5,148.5C 128.512,147.128 129.512,145.795 130.5,144.5C 130.775,146.842 131.608,146.842 133,144.5C 135.466,145.777 137.966,145.777 140.5,144.5C 142.677,141.135 144.177,137.468 145,133.5C 145.179,137.025 145.679,140.359 146.5,143.5 Z"/></g>
<g><path style="opacity:1" fill="#f0f0f0" d="M 430.5,138.5 C 439.833,137.833 444.167,142.167 443.5,151.5C 438.125,151.172 432.792,151.505 427.5,152.5C 428.034,154.614 429.034,156.448 430.5,158C 434.537,158.607 438.537,158.44 442.5,157.5C 442.67,158.822 442.337,159.989 441.5,161C 427.544,165.045 421.71,159.878 424,145.5C 425.694,142.642 427.861,140.309 430.5,138.5 Z"/></g>
<g><path style="opacity:1" fill="#eeeeee" d="M 508.5,139.5 C 509.833,139.5 511.167,139.5 512.5,139.5C 512.139,145.593 512.639,151.593 514,157.5C 516.833,158.87 519.5,158.536 522,156.5C 522.499,150.843 522.666,145.176 522.5,139.5C 524.167,139.5 525.833,139.5 527.5,139.5C 527.5,147.167 527.5,154.833 527.5,162.5C 526.167,162.5 524.833,162.5 523.5,162.5C 523.649,161.448 523.483,160.448 523,159.5C 518.594,163.423 514.261,163.423 510,159.5C 508.58,152.95 508.08,146.284 508.5,139.5 Z"/></g>
<g><path style="opacity:1" fill="#efefee" d="M 539.5,138.5 C 543.785,137.75 547.119,139.083 549.5,142.5C 549.167,143.167 548.833,143.833 548.5,144.5C 544.603,141.518 541.103,141.852 538,145.5C 537.146,149.625 537.48,153.625 539,157.5C 542.366,158.995 545.532,158.662 548.5,156.5C 550.05,159.129 549.384,160.963 546.5,162C 535.244,163.068 530.744,157.902 533,146.5C 534.305,143.039 536.471,140.372 539.5,138.5 Z"/></g>
<g><path style="opacity:1" fill="#ecebeb" d="M 559.5,138.5 C 563.459,138.071 566.959,139.071 570,141.5C 571.425,148.385 571.925,155.385 571.5,162.5C 569.508,162.672 567.842,162.005 566.5,160.5C 557.389,165.201 553.223,162.534 554,152.5C 557.444,149.117 561.61,147.784 566.5,148.5C 566.854,142.796 564.187,140.963 558.5,143C 555.715,145.511 554.548,145.011 555,141.5C 556.409,140.219 557.909,139.219 559.5,138.5 Z"/></g>
<g><path style="opacity:1" fill="#efefef" d="M 583.5,138.5 C 588.022,137.62 591.355,139.12 593.5,143C 593.167,143.5 592.833,144 592.5,144.5C 588.559,141.53 585.059,141.863 582,145.5C 581.146,149.625 581.48,153.625 583,157.5C 586.366,158.995 589.532,158.662 592.5,156.5C 594.05,159.129 593.384,160.963 590.5,162C 583.925,163.962 579.425,161.795 577,155.5C 575.168,148.144 577.335,142.477 583.5,138.5 Z"/></g>
<g><path style="opacity:1" fill="#f6f6f6" d="M 598.5,139.5 C 599.833,139.5 601.167,139.5 602.5,139.5C 602.5,147.167 602.5,154.833 602.5,162.5C 601.167,162.5 599.833,162.5 598.5,162.5C 598.5,154.833 598.5,147.167 598.5,139.5 Z"/></g>
<g><path style="opacity:1" fill="#f0efef" d="M 616.5,138.5 C 628.298,139.077 632.464,145.077 629,156.5C 625.723,162.109 620.89,163.942 614.5,162C 611.572,160.74 609.739,158.573 609,155.5C 606.679,147.489 609.179,141.823 616.5,138.5 Z"/></g>
<g><path style="opacity:1" fill="#eeeeed" d="M 644.5,138.5 C 649.074,138.236 652.241,140.236 654,144.5C 654.499,150.491 654.666,156.491 654.5,162.5C 652.856,162.714 651.356,162.38 650,161.5C 649.667,155.833 649.333,150.167 649,144.5C 645.4,141.646 642.4,142.313 640,146.5C 639.501,151.823 639.334,157.156 639.5,162.5C 638.167,162.5 636.833,162.5 635.5,162.5C 635.5,154.833 635.5,147.167 635.5,139.5C 637.451,139.227 638.951,139.893 640,141.5C 641.652,140.601 643.152,139.601 644.5,138.5 Z"/></g>
<g><path style="opacity:1" fill="#603806" d="M 91.5,134.5 C 91.5,133.833 91.8333,133.5 92.5,133.5C 92.3505,134.552 92.5172,135.552 93,136.5C 93.3333,136.167 93.6667,135.833 94,135.5C 97.6384,137.776 101.472,139.776 105.5,141.5C 106.086,141.291 106.586,140.957 107,140.5C 109.269,143.054 111.602,143.054 114,140.5C 115.299,140.966 116.799,140.966 118.5,140.5C 117.653,141.966 116.32,142.8 114.5,143C 112.333,143.167 110.167,143.333 108,143.5C 102.856,142.679 97.6894,142.012 92.5,141.5C 92.0629,139.926 91.0629,138.759 89.5,138C 86.9644,137.814 84.631,137.314 82.5,136.5C 84.153,136.34 85.4863,135.674 86.5,134.5C 86.3433,133.127 86.51,131.793 87,130.5C 87.3333,132.5 87.6667,134.5 88,136.5C 89.3024,135.915 90.469,135.249 91.5,134.5 Z"/></g>
<g><path style="opacity:1" fill="#595858" d="M 405.5,142.5 C 408.505,142.253 411.005,143.253 413,145.5C 413.667,148.833 413.667,152.167 413,155.5C 409.492,159.436 406.159,159.436 403,155.5C 401.743,150.617 402.576,146.284 405.5,142.5 Z"/></g>
<g><path style="opacity:1" fill="#5a5959" d="M 430.5,142.5 C 435.836,141.185 438.503,143.185 438.5,148.5C 434.774,148.823 431.107,148.489 427.5,147.5C 428.26,145.64 429.26,143.973 430.5,142.5 Z"/></g>
<g><path style="opacity:1" fill="#5e5d5d" d="M 490.5,142.5 C 498.071,143.644 500.571,147.977 498,155.5C 490.886,160.736 487.053,158.902 486.5,150C 486.777,146.902 488.11,144.402 490.5,142.5 Z"/></g>
<g><path style="opacity:1" fill="#595858" d="M 616.5,142.5 C 624.421,142.635 627.255,146.635 625,154.5C 622.947,158.292 619.781,159.458 615.5,158C 611.234,152.387 611.567,147.22 616.5,142.5 Z"/></g>
<g><path style="opacity:1" fill="#74510e" d="M 81.5,142.5 C 81.5,142.833 81.5,143.167 81.5,143.5C 79.0092,143.829 76.8425,144.829 75,146.5C 74.6924,145.692 74.1924,145.025 73.5,144.5C 72.7103,146.616 72.7103,148.949 73.5,151.5C 70.012,148.751 68.012,145.085 67.5,140.5C 68.9363,140.322 70.4363,139.989 72,139.5C 75.1237,140.828 78.2904,141.828 81.5,142.5 Z"/></g>
<g><path style="opacity:1" fill="#090200" d="M 81.5,143.5 C 81.5,143.167 81.5,142.833 81.5,142.5C 82.8333,142.5 84.1667,142.5 85.5,142.5C 86.9516,143.302 88.6183,143.802 90.5,144C 91.7911,145.292 91.7911,146.458 90.5,147.5C 90.38,146.414 89.7133,145.747 88.5,145.5C 86.0871,144.981 83.7537,144.315 81.5,143.5 Z"/></g>
<g><path style="opacity:1" fill="#5d3708" d="M 86.5,139.5 C 88.9468,139.615 90.9468,140.615 92.5,142.5C 92.7822,143.778 93.4489,144.778 94.5,145.5C 92.7425,147.141 91.2425,149.141 90,151.5C 89.4209,150.072 89.5876,148.738 90.5,147.5C 91.7911,146.458 91.7911,145.292 90.5,144C 88.6183,143.802 86.9516,143.302 85.5,142.5C 86.404,141.791 86.7373,140.791 86.5,139.5 Z"/></g>
<g><path style="opacity:1" fill="#cb0c0f" d="M 148.5,142.5 C 149.404,143.209 149.737,144.209 149.5,145.5C 148.501,148.162 147.501,150.828 146.5,153.5C 144.413,154.585 143.08,156.251 142.5,158.5C 139.883,159.786 137.55,161.453 135.5,163.5C 128.423,166.103 121.09,167.103 113.5,166.5C 108.962,166.282 104.629,165.282 100.5,163.5C 100.068,162.29 99.4013,161.29 98.5,160.5C 98.5,159.5 98.5,158.5 98.5,157.5C 99.5,157.5 100.5,157.5 101.5,157.5C 107.842,157.666 114.175,157.5 120.5,157C 126.175,155.813 130.175,152.647 132.5,147.5C 134.948,146.527 137.615,146.194 140.5,146.5C 136.403,154.757 129.737,159.257 120.5,160C 115.467,160.171 110.467,160.671 105.5,161.5C 109.299,163.05 113.299,163.717 117.5,163.5C 121.587,163.552 125.587,163.052 129.5,162C 133.012,158.969 136.512,155.803 140,152.5C 141.122,150.593 141.955,148.593 142.5,146.5C 144.632,146.446 145.965,145.446 146.5,143.5C 147.167,143.167 147.833,142.833 148.5,142.5 Z"/></g>
<g><path style="opacity:1" fill="#9e8121" d="M 81.5,143.5 C 83.7537,144.315 86.0871,144.981 88.5,145.5C 89.7133,145.747 90.38,146.414 90.5,147.5C 89.5876,148.738 89.4209,150.072 90,151.5C 91.2425,149.141 92.7425,147.141 94.5,145.5C 99.4767,146.327 104.477,146.994 109.5,147.5C 109.67,148.822 109.337,149.989 108.5,151C 103.235,151.239 98.0681,152.072 93,153.5C 89.6178,153.088 86.2845,153.088 83,153.5C 80.8071,153.149 78.9738,152.149 77.5,150.5C 76.2638,151.246 74.9305,151.579 73.5,151.5C 72.7103,148.949 72.7103,146.616 73.5,144.5C 74.1924,145.025 74.6924,145.692 75,146.5C 76.8425,144.829 79.0092,143.829 81.5,143.5 Z"/></g>
<g><path style="opacity:1" fill="#821504" d="M 132.5,147.5 C 130.175,152.647 126.175,155.813 120.5,157C 114.175,157.5 107.842,157.666 101.5,157.5C 111.548,158.484 120.214,155.484 127.5,148.5C 129.216,148.371 130.883,148.038 132.5,147.5 Z"/></g>
<g><path style="opacity:1" fill="#5d5c5c" d="M 559.5,152.5 C 561.833,152.5 564.167,152.5 566.5,152.5C 567.517,156.789 565.85,159.122 561.5,159.5C 557.167,158.172 556.501,155.838 559.5,152.5 Z"/></g>
<g><path style="opacity:1" fill="#432722" d="M 40.5,152.5 C 41.9063,152.973 42.573,153.973 42.5,155.5C 41.0937,155.027 40.427,154.027 40.5,152.5 Z"/></g>
<g><path style="opacity:1" fill="#891606" d="M 54.5,146.5 C 56.0495,147.441 57.7162,148.107 59.5,148.5C 66.8256,155.491 75.4923,158.491 85.5,157.5C 77.3778,159.101 69.3778,158.601 61.5,156C 58.1443,153.493 55.8109,150.326 54.5,146.5 Z"/></g>
<g><path style="opacity:1" fill="#403a39" d="M 42.5,155.5 C 44.8333,157.167 46.8333,159.167 48.5,161.5C 45.5,160.5 43.5,158.5 42.5,155.5 Z"/></g>
<g><path style="opacity:1" fill="#821003" d="M 42.5,145.5 C 44.7354,145.205 46.7354,145.539 48.5,146.5C 47.6236,146.369 46.9569,146.702 46.5,147.5C 55.1245,157.331 66.1245,161.831 79.5,161C 73.7547,163.46 67.7547,164.127 61.5,163C 58.4545,160.811 55.1212,159.144 51.5,158C 48.601,153.678 45.601,149.511 42.5,145.5 Z"/></g>
<g><path style="opacity:1" fill="#44302a" d="M 146.5,153.5 C 145.92,155.749 144.587,157.415 142.5,158.5C 143.08,156.251 144.413,154.585 146.5,153.5 Z"/></g>
<g><path style="opacity:1" fill="#cc0e0f" d="M 37.5,141.5 C 39.1667,142.833 40.8333,144.167 42.5,145.5C 45.601,149.511 48.601,153.678 51.5,158C 55.1212,159.144 58.4545,160.811 61.5,163C 67.7547,164.127 73.7547,163.46 79.5,161C 66.1245,161.831 55.1245,157.331 46.5,147.5C 46.9569,146.702 47.6236,146.369 48.5,146.5C 50.5,146.5 52.5,146.5 54.5,146.5C 55.8109,150.326 58.1443,153.493 61.5,156C 69.3778,158.601 77.3778,159.101 85.5,157.5C 88.8306,157.018 91.4973,158.018 93.5,160.5C 92.0559,163.713 90.2226,164.047 88,161.5C 87.5357,162.094 87.369,162.761 87.5,163.5C 77.3431,166.588 67.0098,167.254 56.5,165.5C 54.1515,163.659 51.4848,162.326 48.5,161.5C 46.8333,159.167 44.8333,157.167 42.5,155.5C 42.573,153.973 41.9063,152.973 40.5,152.5C 40.3404,150.847 39.6737,149.514 38.5,148.5C 38.0074,146.194 37.6741,143.861 37.5,141.5 Z"/></g>
<g><path style="opacity:1" fill="#7c0e02" d="M 140.5,146.5 C 141.167,146.5 141.833,146.5 142.5,146.5C 141.955,148.593 141.122,150.593 140,152.5C 136.512,155.803 133.012,158.969 129.5,162C 125.587,163.052 121.587,163.552 117.5,163.5C 113.299,163.717 109.299,163.05 105.5,161.5C 110.467,160.671 115.467,160.171 120.5,160C 129.737,159.257 136.403,154.757 140.5,146.5 Z"/></g>
<g><path style="opacity:1" fill="#2b2221" d="M 48.5,161.5 C 51.4848,162.326 54.1515,163.659 56.5,165.5C 53.2459,165.206 50.5792,163.873 48.5,161.5 Z"/></g>
<g><path style="opacity:1" fill="#561005" d="M 98.5,157.5 C 98.5,158.5 98.5,159.5 98.5,160.5C 96.8942,159.22 95.8942,159.72 95.5,162C 95.9054,162.945 96.572,163.612 97.5,164C 96.8333,164.667 96.1667,165.333 95.5,166C 100.804,167.48 100.804,168.647 95.5,169.5C 94.1667,169.5 92.8333,169.5 91.5,169.5C 91.4226,168.25 90.756,167.417 89.5,167C 90.3081,166.692 90.9747,166.192 91.5,165.5C 90.1916,164.374 88.8583,164.374 87.5,165.5C 87.5,164.833 87.5,164.167 87.5,163.5C 87.369,162.761 87.5357,162.094 88,161.5C 90.2226,164.047 92.0559,163.713 93.5,160.5C 95.0009,159.248 96.6675,158.248 98.5,157.5 Z"/></g>
<g><path style="opacity:1" fill="#30211c" d="M 142.5,158.5 C 141.008,161.323 138.674,162.99 135.5,163.5C 137.55,161.453 139.883,159.786 142.5,158.5 Z"/></g>
<g><path style="opacity:1" fill="#aeadad" d="M 92.5,163.5 C 94.4646,163.948 94.7979,164.948 93.5,166.5C 92.6143,165.675 92.281,164.675 92.5,163.5 Z"/></g>
<g><path style="opacity:1" fill="#402f27" d="M 135.5,163.5 C 135.53,164.497 135.03,165.164 134,165.5C 127.105,167.596 120.271,167.929 113.5,166.5C 121.09,167.103 128.423,166.103 135.5,163.5 Z"/></g>
<g><path style="opacity:1" fill="#932214" d="M 91.5,169.5 C 94.4097,174.92 92.7431,176.92 86.5,175.5C 87.6873,173.79 87.354,172.29 85.5,171C 86.8847,169.403 87.5514,167.57 87.5,165.5C 88.8583,164.374 90.1916,164.374 91.5,165.5C 90.9747,166.192 90.3081,166.692 89.5,167C 90.756,167.417 91.4226,168.25 91.5,169.5 Z"/></g>
<g><path style="opacity:1" fill="#8b2918" d="M 98.5,160.5 C 99.4013,161.29 100.068,162.29 100.5,163.5C 101.212,167.565 101.212,171.898 100.5,176.5C 95.1384,176.773 93.4718,174.439 95.5,169.5C 100.804,168.647 100.804,167.48 95.5,166C 96.1667,165.333 96.8333,164.667 97.5,164C 96.572,163.612 95.9054,162.945 95.5,162C 95.8942,159.72 96.8942,159.22 98.5,160.5 Z"/></g>
</svg>
